<?xml version="1.0" encoding="utf-8"?>
<!-- Generator: Adobe Illustrator 21.0.0, SVG Export Plug-In . SVG Version: 6.00 Build 0)  -->
<svg version="1.1" id="레이어_1" xmlns="http://www.w3.org/2000/svg" xmlns:xlink="http://www.w3.org/1999/xlink" x="0px"
	 y="0px" viewBox="0 0 84 52.5" style="enable-background:new 0 0 84 52.5;" xml:space="preserve">
<style type="text/css">
	.st0{fill:#337AB7;}
	.st1{fill:#FFFFFF;}
</style>
<g>
	<path class="st0" d="M81.1,52.5H-1.2V0h82.3C82.7,0,84,0.8,84,1.8v48.9C84,51.7,82.7,52.5,81.1,52.5z"/>
	<path class="st1" d="M57.8,40.1l-8.1-8.1c4.3-5.5,3.9-13.4-1.2-18.5c-5.5-5.5-14.4-5.5-19.8,0s-5.5,14.4,0,19.8
		c5.1,5.1,13,5.4,18.5,1.2l8.1,8.1c0.5,0.5,1.2,0.5,1.7,0l0.8-0.8C58.3,41.4,58.3,40.6,57.8,40.1z M30.8,31.3
		c-4.3-4.3-4.3-11.3,0-15.7s11.3-4.3,15.7,0c4.3,4.3,4.3,11.3,0,15.7S35.2,35.6,30.8,31.3z"/>
</g>
</svg>
