<?xml version="1.0" encoding="utf-8"?>
<!-- Generator: Adobe Illustrator 21.0.0, SVG Export Plug-In . SVG Version: 6.00 Build 0)  -->
<svg version="1.1" id="레이어_1" xmlns="http://www.w3.org/2000/svg" xmlns:xlink="http://www.w3.org/1999/xlink" x="0px"
	 y="0px" viewBox="0 0 249.5 249.5" style="enable-background:new 0 0 249.5 249.5;" xml:space="preserve">
<style type="text/css">
	.st0{fill:#F2F2F2;}
	.st1{fill:#FFFFFF;}
</style>
<path class="st0" d="M241,249.5H0V0h241c4.7,0,8.5,3.8,8.5,8.5V241C249.5,245.7,245.7,249.5,241,249.5z"/>
<path class="st1" d="M202.8,190.8l-38.3-38.3c20.3-26.1,18.4-63.9-5.6-87.9c-26-26-68.2-26-94.3,0s-26,68.2,0,94.3
	c24,24,61.8,25.9,87.9,5.6l38.3,38.3c2.2,2.2,5.8,2.2,8,0l4-4C205,196.6,205,193,202.8,190.8z M74.5,148.9
	C54,128.4,54,95.1,74.5,74.5s53.8-20.5,74.4,0c20.5,20.5,20.5,53.8,0,74.4S95.1,169.4,74.5,148.9z"/>
</svg>
