<?xml version="1.0" encoding="utf-8"?>
<!-- Generator: Adobe Illustrator 21.0.0, SVG Export Plug-In . SVG Version: 6.00 Build 0)  -->
<svg version="1.1" id="레이어_1" xmlns="http://www.w3.org/2000/svg" xmlns:xlink="http://www.w3.org/1999/xlink" x="0px"
	 y="0px" viewBox="0 0 56 40" style="enable-background:new 0 0 56 40;" xml:space="preserve">
<style type="text/css">
	.st0{fill:#337AB7;}
	.st1{fill:#FFFFFF;}
</style>
<g>
	<path class="st0" d="M54.1,40H0V0h54.1C55.1,0,56,0.6,56,1.4v37.3C56,39.4,55.1,40,54.1,40z"/>
	<path class="st1" d="M48.5,30.6l-6.1-6.1c3.3-4.2,2.9-10.2-0.9-14.1c-4.2-4.2-10.9-4.2-15.1,0s-4.2,10.9,0,15.1
		c3.8,3.8,9.9,4.2,14.1,0.9l6.1,6.1c0.4,0.4,0.9,0.4,1.3,0l0.6-0.6C48.9,31.5,48.9,30.9,48.5,30.6z M27.9,23.9
		c-3.3-3.3-3.3-8.6,0-11.9s8.6-3.3,11.9,0c3.3,3.3,3.3,8.6,0,11.9S31.2,27.2,27.9,23.9z"/>
</g>
</svg>
